# xmcd
#
# Track frame offsets: 
#        150
#        19925
#        31647
#        57140
#        84432
#        103167
#        122325
#        145735
#        163260
#        184310
#        204020
#
# Disc length: 2957 seconds
#
# Revision: 2
# Processed by: cddbd v1.5.2PL0 Copyright (c) Steve Scherf et al.
# Submitted via: ExactAudioCopyFreeDBPlugin 1.0
#
DISCID=860b8b0b
DTITLE=Eddie Burks - Comin' Home
DYEAR=1993
DGENRE=Blues
TTITLE0=Dead Or Alive (I Want My Baby Back)
TTITLE1=I Ain't Mad At You Pretty Baby
TTITLE2=Plough Handle
TTITLE3=Sugar Hills Blues
TTITLE4=Baby What Is Wrong With You
TTITLE5=My Daddy's House
TTITLE6=Maxwell Street Jump
TTITLE7=I Know She Was A Dreamer
TTITLE8=I'm A Man (Manish Boy)
TTITLE9=Worried Life Blues
TTITLE10=Minnie Sue
EXTD=
EXTT0=
EXTT1=
EXTT2=
EXTT3=
EXTT4=
EXTT5=
EXTT6=
EXTT7=
EXTT8=
EXTT9=
EXTT10=
PLAYORDER=
